<?xml version="1.0" encoding="utf-8"?>
<!-- Generator: Adobe Illustrator 16.0.1, SVG Export Plug-In . SVG Version: 6.00 Build 0)  -->
<!DOCTYPE svg PUBLIC "-//W3C//DTD SVG 1.1//EN" "http://www.w3.org/Graphics/SVG/1.1/DTD/svg11.dtd">
<svg version="1.1" id="Layer_1" xmlns="http://www.w3.org/2000/svg" xmlns:xlink="http://www.w3.org/1999/xlink" x="0px" y="0px"
	 width="400px" height="400px" viewBox="0 0 400 400" enable-background="new 0 0 400 400" xml:space="preserve">
<polygon fill="none" stroke="#403F6B" stroke-width="10" stroke-linecap="round" stroke-miterlimit="10" points="57.816,109.969 
	207.514,23.541 357.213,109.969 357.213,282.826 207.514,369.254 57.816,282.826 "/>
<path fill="none" stroke="#000000" stroke-width="10" stroke-miterlimit="10" d="M207.515,23.541"/>
<path fill="none" stroke="#000000" stroke-width="10" stroke-miterlimit="10" d="M207.515,196.397"/>
<line fill="none" stroke="#403F6B" stroke-width="8" stroke-linecap="round" stroke-miterlimit="10" x1="219.217" y1="269.802" x2="219.217" y2="283.78"/>
<line fill="none" stroke="#403F6B" stroke-width="8" stroke-linecap="round" stroke-miterlimit="10" x1="219.217" y1="283.78" x2="358.33" y2="283.78"/>
<line fill="none" stroke="#403F6B" stroke-width="8" stroke-linecap="round" stroke-miterlimit="10" x1="219.217" y1="269.802" x2="358.994" y2="269.802"/>
<line fill="none" stroke="#403F6B" stroke-width="8" stroke-linecap="round" stroke-miterlimit="10" x1="233.141" y1="283.78" x2="233.141" y2="354.4"/>
<line fill="none" stroke="#403F6B" stroke-width="8" stroke-linecap="round" stroke-miterlimit="10" x1="172.282" y1="269.354" x2="172.282" y2="283.78"/>
<line fill="none" stroke="#403F6B" stroke-width="8" stroke-linecap="round" stroke-miterlimit="10" x1="172.282" y1="283.78" x2="59.993" y2="283.78"/>
<line fill="none" stroke="#403F6B" stroke-width="8" stroke-linecap="round" stroke-miterlimit="10" x1="172.282" y1="269.354" x2="57.816" y2="269.354"/>
<line fill="none" stroke="#403F6B" stroke-width="8" stroke-linecap="round" stroke-miterlimit="10" x1="163.617" y1="283.78" x2="163.617" y2="343.695"/>
<line fill="none" stroke="#403F6B" stroke-width="8" stroke-linecap="round" stroke-miterlimit="10" x1="149.186" y1="283.78" x2="149.186" y2="335.578"/>
<line fill="none" stroke="#403F6B" stroke-width="8" stroke-linecap="round" stroke-miterlimit="10" x1="172.282" y1="283.78" x2="233.141" y2="327.419"/>
<line fill="none" stroke="#403F6B" stroke-width="8" stroke-linecap="round" stroke-miterlimit="10" x1="172.282" y1="269.354" x2="183.186" y2="276.567"/>
<line fill="none" stroke="#403F6B" stroke-width="8" stroke-linecap="round" stroke-miterlimit="10" x1="183.186" y1="276.567" x2="183.186" y2="291.599"/>
<line fill="none" stroke="#403F6B" stroke-width="8" stroke-linecap="round" stroke-miterlimit="10" x1="233.141" y1="144.147" x2="233.141" y2="158.125"/>
<line fill="none" stroke="#403F6B" stroke-width="8" stroke-linecap="round" stroke-miterlimit="10" x1="233.141" y1="144.147" x2="163.617" y2="144.147"/>
<line fill="none" stroke="#403F6B" stroke-width="8" stroke-linecap="round" stroke-miterlimit="10" x1="233.141" y1="158.125" x2="163.244" y2="158.125"/>
<line fill="none" stroke="#403F6B" stroke-width="8" stroke-linecap="round" stroke-miterlimit="10" x1="205.182" y1="118.377" x2="205.182" y2="144.147"/>
<line fill="none" stroke="#403F6B" stroke-width="8" stroke-linecap="round" stroke-miterlimit="10" x1="205.182" y1="118.377" x2="131.141" y2="118.377"/>
<line fill="none" stroke="#403F6B" stroke-width="8" stroke-linecap="round" stroke-miterlimit="10" x1="205.182" y1="118.377" x2="257.883" y2="133.442"/>
<line fill="none" stroke="#403F6B" stroke-width="8" stroke-linecap="round" stroke-miterlimit="10" x1="257.883" y1="133.442" x2="257.883" y2="163.951"/>
<line fill="none" stroke="#403F6B" stroke-width="8" stroke-linecap="round" stroke-miterlimit="10" x1="233.141" y1="144.147" x2="257.883" y2="163.951"/>
<line fill="none" stroke="#403F6B" stroke-width="8" stroke-linecap="round" stroke-miterlimit="10" x1="233.141" y1="158.125" x2="249.009" y2="171.489"/>
<line fill="none" stroke="#403F6B" stroke-width="8" stroke-linecap="round" stroke-miterlimit="10" x1="281.908" y1="143.54" x2="281.908" y2="158.125"/>
<line fill="none" stroke="#403F6B" stroke-width="8" stroke-linecap="round" stroke-miterlimit="10" x1="281.908" y1="143.54" x2="223.406" y2="193.24"/>
<line fill="none" stroke="#403F6B" stroke-width="8" stroke-linecap="round" stroke-miterlimit="10" x1="281.908" y1="143.54" x2="357.213" y2="143.54"/>
<line fill="none" stroke="#403F6B" stroke-width="8" stroke-linecap="round" stroke-miterlimit="10" x1="281.908" y1="158.125" x2="357.213" y2="158.125"/>
<line fill="none" stroke="#403F6B" stroke-width="8" stroke-linecap="round" stroke-miterlimit="10" x1="288.773" y1="158.125" x2="288.773" y2="269.354"/>
<line fill="none" stroke="#403F6B" stroke-width="8" stroke-linecap="round" stroke-miterlimit="10" x1="281.908" y1="158.125" x2="223.406" y2="206.446"/>
<line fill="none" stroke="#403F6B" stroke-width="8" stroke-linecap="round" stroke-miterlimit="10" x1="223.406" y1="209.08" x2="223.406" y2="193.24"/>
<line fill="none" stroke="#403F6B" stroke-width="8" stroke-linecap="round" stroke-miterlimit="10" x1="288.773" y1="160.776" x2="231.533" y2="209.08"/>
<line fill="none" stroke="#403F6B" stroke-width="8" stroke-linecap="round" stroke-miterlimit="10" x1="231.533" y1="209.08" x2="223.406" y2="209.08"/>
<line fill="none" stroke="#403F6B" stroke-width="8" stroke-linecap="round" stroke-miterlimit="10" x1="231.533" y1="209.08" x2="233.141" y2="269.354"/>
<line fill="none" stroke="#403F6B" stroke-width="8" stroke-linecap="round" stroke-miterlimit="10" x1="233.141" y1="93.683" x2="233.141" y2="126.369"/>
<line fill="none" stroke="#403F6B" stroke-width="8" stroke-linecap="round" stroke-miterlimit="10" x1="233.141" y1="93.683" x2="181.01" y2="105.651"/>
<line fill="none" stroke="#403F6B" stroke-width="8" stroke-linecap="round" stroke-miterlimit="10" x1="181.01" y1="105.651" x2="181.01" y2="118.377"/>
<line fill="none" stroke="#403F6B" stroke-width="8" stroke-linecap="round" stroke-miterlimit="10" x1="233.141" y1="93.683" x2="325.904" y2="116.367"/>
<line fill="none" stroke="#403F6B" stroke-width="8" stroke-linecap="round" stroke-miterlimit="10" x1="325.904" y1="116.367" x2="325.904" y2="143.54"/>
<line fill="none" stroke="#403F6B" stroke-width="8" stroke-linecap="round" stroke-miterlimit="10" x1="205.182" y1="158.125" x2="205.182" y2="307.371"/>
<line fill="none" stroke="#403F6B" stroke-width="8" stroke-linecap="round" stroke-miterlimit="10" x1="205.182" y1="158.125" x2="236.398" y2="182.203"/>
<line fill="none" stroke="#403F6B" stroke-width="8" stroke-linecap="round" stroke-miterlimit="10" x1="102.361" y1="235.772" x2="174.398" y2="235.772"/>
<line fill="none" stroke="#403F6B" stroke-width="8" stroke-linecap="round" stroke-miterlimit="10" x1="174.398" y1="235.772" x2="174.398" y2="268.672"/>
<line fill="none" stroke="#403F6B" stroke-width="8" stroke-linecap="round" stroke-miterlimit="10" x1="102.361" y1="235.772" x2="102.361" y2="268.039"/>
<line fill="none" stroke="#403F6B" stroke-width="8" stroke-linecap="round" stroke-miterlimit="10" x1="73.188" y1="155.684" x2="57.816" y2="155.684"/>
<line fill="none" stroke="#403F6B" stroke-width="8" stroke-linecap="round" stroke-miterlimit="10" x1="73.188" y1="155.684" x2="73.188" y2="247.689"/>
<line fill="none" stroke="#403F6B" stroke-width="8" stroke-linecap="round" stroke-miterlimit="10" x1="102.361" y1="235.772" x2="57.816" y2="253.968"/>
<line fill="none" stroke="#403F6B" stroke-width="8" stroke-linecap="round" stroke-miterlimit="10" x1="73.188" y1="155.684" x2="123.94" y2="188.822"/>
<line fill="none" stroke="#403F6B" stroke-width="8" stroke-linecap="round" stroke-miterlimit="10" x1="123.94" y1="188.822" x2="123.94" y2="235.772"/>
<ellipse fill="none" stroke="#403F6B" stroke-width="8" stroke-linecap="round" stroke-miterlimit="10" cx="144.862" cy="158.544" rx="16.721" ry="23.615"/>
<path fill="none" stroke="#403F6B" stroke-width="8" stroke-linecap="round" stroke-miterlimit="10" d="M92.459,111.68
	c16.226-3.521,42.923,0.586,47.616,22.002"/>
<path fill="none" stroke="#403F6B" stroke-width="8" stroke-linecap="round" stroke-miterlimit="10" d="M108.099,144.83
	c-4.107-9.094-11.735-22.002-28.457-18.188"/>
<line fill="none" stroke="#403F6B" stroke-width="8" stroke-linecap="round" stroke-miterlimit="10" x1="79.642" y1="126.641" x2="56.76" y2="139.312"/>
<path fill="none" stroke="#403F6B" stroke-width="8" stroke-linecap="round" stroke-miterlimit="10" d="M56.76,139.312"/>
<line fill="none" stroke="#403F6B" stroke-width="8" stroke-linecap="round" stroke-miterlimit="10" x1="79.642" y1="126.641" x2="79.642" y2="159.898"/>
<line fill="none" stroke="#403F6B" stroke-width="8" stroke-linecap="round" stroke-miterlimit="10" x1="92.459" y1="111.68" x2="92.459" y2="126.641"/>
<line fill="none" stroke="#403F6B" stroke-width="8" stroke-linecap="round" stroke-miterlimit="10" x1="138.38" y1="134.929" x2="99.557" y2="172.253"/>
<line fill="none" stroke="#403F6B" stroke-width="8" stroke-linecap="round" stroke-miterlimit="10" x1="108.099" y1="143.27" x2="108.099" y2="165.21"/>
<line fill="none" stroke="#403F6B" stroke-width="8" stroke-linecap="round" stroke-miterlimit="10" x1="157.292" y1="174.337" x2="157.292" y2="235.772"/>
<line fill="none" stroke="#403F6B" stroke-width="8" stroke-linecap="round" stroke-miterlimit="10" x1="144.862" y1="183.847" x2="144.862" y2="235.772"/>
<line fill="none" stroke="#403F6B" stroke-width="8" stroke-linecap="round" stroke-miterlimit="10" x1="129.807" y1="172.253" x2="116.32" y2="183.847"/>
<g>
	
		<line fill="none" stroke="#403F6B" stroke-width="2" stroke-linecap="round" stroke-miterlimit="10" x1="212.87" y1="44.126" x2="201.965" y2="65.279"/>
	
		<line fill="none" stroke="#403F6B" stroke-width="2" stroke-linecap="round" stroke-miterlimit="10" x1="201.965" y1="65.279" x2="203.202" y2="96.677"/>
	
		<line fill="none" stroke="#403F6B" stroke-width="2" stroke-linecap="round" stroke-miterlimit="10" x1="189.549" y1="69.894" x2="195.125" y2="77.585"/>
	
		<line fill="none" stroke="#403F6B" stroke-width="2" stroke-linecap="round" stroke-miterlimit="10" x1="195.125" y1="77.585" x2="195.125" y2="102.11"/>
	
		<line fill="none" stroke="#403F6B" stroke-width="2" stroke-linecap="round" stroke-miterlimit="10" x1="189.549" y1="53.356" x2="173.877" y2="79.694"/>
	
		<line fill="none" stroke="#403F6B" stroke-width="2" stroke-linecap="round" stroke-miterlimit="10" x1="173.877" y1="79.694" x2="174.24" y2="118.16"/>
	
		<line fill="none" stroke="#403F6B" stroke-width="2" stroke-linecap="round" stroke-miterlimit="10" x1="181.713" y1="50.087" x2="185.318" y2="68.74"/>
	
		<line fill="none" stroke="#403F6B" stroke-width="2" stroke-linecap="round" stroke-miterlimit="10" x1="177.242" y1="62.202" x2="183.516" y2="71.625"/>
	
		<line fill="none" stroke="#403F6B" stroke-width="2" stroke-linecap="round" stroke-miterlimit="10" x1="172.102" y1="67.971" x2="180.379" y2="73.74"/>
	
		<line fill="none" stroke="#403F6B" stroke-width="2" stroke-linecap="round" stroke-miterlimit="10" x1="182.58" y1="78.547" x2="162.244" y2="95.853"/>
	
		<line fill="none" stroke="#403F6B" stroke-width="2" stroke-linecap="round" stroke-miterlimit="10" x1="180.379" y1="85.662" x2="166.859" y2="98.927"/>
	
		<line fill="none" stroke="#403F6B" stroke-width="2" stroke-linecap="round" stroke-miterlimit="10" x1="179.357" y1="92.294" x2="170.32" y2="102.11"/>
	
		<line fill="none" stroke="#403F6B" stroke-width="2" stroke-linecap="round" stroke-miterlimit="10" x1="198.202" y1="85.662" x2="189.549" y2="85.662"/>
	
		<line fill="none" stroke="#403F6B" stroke-width="2" stroke-linecap="round" stroke-miterlimit="10" x1="198.202" y1="89.848" x2="192.723" y2="89.848"/>
	
		<line fill="none" stroke="#403F6B" stroke-width="2" stroke-linecap="round" stroke-miterlimit="10" x1="198.202" y1="92.294" x2="192.723" y2="93.546"/>
	
		<line fill="none" stroke="#403F6B" stroke-width="2" stroke-linecap="round" stroke-miterlimit="10" x1="201.965" y1="40.857" x2="214.932" y2="68.74"/>
	
		<line fill="none" stroke="#403F6B" stroke-width="2" stroke-linecap="round" stroke-miterlimit="10" x1="196.856" y1="53.632" x2="209.933" y2="65.279"/>
	
		<line fill="none" stroke="#403F6B" stroke-width="2" stroke-linecap="round" stroke-miterlimit="10" x1="195.992" y1="71.625" x2="208.543" y2="77.585"/>
</g>
<polygon fill="none" stroke="#FFFFFF" stroke-width="10" stroke-linecap="round" stroke-miterlimit="10" points="549.604,109.969 
	699.301,23.541 849,109.969 849,282.826 699.301,369.254 549.604,282.826 "/>
<path fill="none" stroke="#FFFFFF" stroke-width="10" stroke-miterlimit="10" d="M699.302,23.541"/>
<path fill="none" stroke="#FFFFFF" stroke-width="10" stroke-miterlimit="10" d="M699.302,196.397"/>
<line fill="none" stroke="#FFFFFF" stroke-width="8" stroke-linecap="round" stroke-miterlimit="10" x1="711.004" y1="269.802" x2="711.004" y2="283.78"/>
<line fill="none" stroke="#FFFFFF" stroke-width="8" stroke-linecap="round" stroke-miterlimit="10" x1="711.004" y1="283.78" x2="850.117" y2="283.78"/>
<line fill="none" stroke="#FFFFFF" stroke-width="8" stroke-linecap="round" stroke-miterlimit="10" x1="711.004" y1="269.802" x2="850.781" y2="269.802"/>
<line fill="none" stroke="#FFFFFF" stroke-width="8" stroke-linecap="round" stroke-miterlimit="10" x1="724.928" y1="283.78" x2="724.928" y2="354.4"/>
<line fill="none" stroke="#FFFFFF" stroke-width="8" stroke-linecap="round" stroke-miterlimit="10" x1="664.069" y1="269.354" x2="664.069" y2="283.78"/>
<line fill="none" stroke="#FFFFFF" stroke-width="8" stroke-linecap="round" stroke-miterlimit="10" x1="664.069" y1="283.78" x2="551.78" y2="283.78"/>
<line fill="none" stroke="#FFFFFF" stroke-width="8" stroke-linecap="round" stroke-miterlimit="10" x1="664.069" y1="269.354" x2="549.604" y2="269.354"/>
<line fill="none" stroke="#FFFFFF" stroke-width="8" stroke-linecap="round" stroke-miterlimit="10" x1="655.404" y1="283.78" x2="655.404" y2="343.695"/>
<line fill="none" stroke="#FFFFFF" stroke-width="8" stroke-linecap="round" stroke-miterlimit="10" x1="640.973" y1="283.78" x2="640.973" y2="335.578"/>
<line fill="none" stroke="#FFFFFF" stroke-width="8" stroke-linecap="round" stroke-miterlimit="10" x1="664.069" y1="283.78" x2="724.928" y2="327.419"/>
<line fill="none" stroke="#FFFFFF" stroke-width="8" stroke-linecap="round" stroke-miterlimit="10" x1="664.069" y1="269.354" x2="674.973" y2="276.567"/>
<line fill="none" stroke="#FFFFFF" stroke-width="8" stroke-linecap="round" stroke-miterlimit="10" x1="674.973" y1="276.567" x2="674.973" y2="291.599"/>
<line fill="none" stroke="#FFFFFF" stroke-width="8" stroke-linecap="round" stroke-miterlimit="10" x1="724.928" y1="144.147" x2="724.928" y2="158.125"/>
<line fill="none" stroke="#FFFFFF" stroke-width="8" stroke-linecap="round" stroke-miterlimit="10" x1="724.928" y1="144.147" x2="655.404" y2="144.147"/>
<line fill="none" stroke="#FFFFFF" stroke-width="8" stroke-linecap="round" stroke-miterlimit="10" x1="724.928" y1="158.125" x2="655.031" y2="158.125"/>
<line fill="none" stroke="#FFFFFF" stroke-width="8" stroke-linecap="round" stroke-miterlimit="10" x1="696.969" y1="118.377" x2="696.969" y2="144.147"/>
<line fill="none" stroke="#FFFFFF" stroke-width="8" stroke-linecap="round" stroke-miterlimit="10" x1="696.969" y1="118.377" x2="622.928" y2="118.377"/>
<line fill="none" stroke="#FFFFFF" stroke-width="8" stroke-linecap="round" stroke-miterlimit="10" x1="696.969" y1="118.377" x2="749.67" y2="133.442"/>
<line fill="none" stroke="#FFFFFF" stroke-width="8" stroke-linecap="round" stroke-miterlimit="10" x1="749.67" y1="133.442" x2="749.67" y2="163.951"/>
<line fill="none" stroke="#FFFFFF" stroke-width="8" stroke-linecap="round" stroke-miterlimit="10" x1="724.928" y1="144.147" x2="749.67" y2="163.951"/>
<line fill="none" stroke="#FFFFFF" stroke-width="8" stroke-linecap="round" stroke-miterlimit="10" x1="724.928" y1="158.125" x2="740.796" y2="171.489"/>
<line fill="none" stroke="#FFFFFF" stroke-width="8" stroke-linecap="round" stroke-miterlimit="10" x1="773.695" y1="143.54" x2="773.695" y2="158.125"/>
<line fill="none" stroke="#FFFFFF" stroke-width="8" stroke-linecap="round" stroke-miterlimit="10" x1="773.695" y1="143.54" x2="715.193" y2="193.24"/>
<line fill="none" stroke="#FFFFFF" stroke-width="8" stroke-linecap="round" stroke-miterlimit="10" x1="773.695" y1="143.54" x2="849" y2="143.54"/>
<line fill="none" stroke="#FFFFFF" stroke-width="8" stroke-linecap="round" stroke-miterlimit="10" x1="773.695" y1="158.125" x2="849" y2="158.125"/>
<line fill="none" stroke="#FFFFFF" stroke-width="8" stroke-linecap="round" stroke-miterlimit="10" x1="780.561" y1="158.125" x2="780.561" y2="269.354"/>
<line fill="none" stroke="#FFFFFF" stroke-width="8" stroke-linecap="round" stroke-miterlimit="10" x1="773.695" y1="158.125" x2="715.193" y2="206.446"/>
<line fill="none" stroke="#FFFFFF" stroke-width="8" stroke-linecap="round" stroke-miterlimit="10" x1="715.193" y1="209.08" x2="715.193" y2="193.24"/>
<line fill="none" stroke="#FFFFFF" stroke-width="8" stroke-linecap="round" stroke-miterlimit="10" x1="780.561" y1="160.776" x2="723.32" y2="209.08"/>
<line fill="none" stroke="#FFFFFF" stroke-width="8" stroke-linecap="round" stroke-miterlimit="10" x1="723.32" y1="209.08" x2="715.193" y2="209.08"/>
<line fill="none" stroke="#FFFFFF" stroke-width="8" stroke-linecap="round" stroke-miterlimit="10" x1="723.32" y1="209.08" x2="724.928" y2="269.354"/>
<line fill="none" stroke="#FFFFFF" stroke-width="8" stroke-linecap="round" stroke-miterlimit="10" x1="724.928" y1="93.683" x2="724.928" y2="126.369"/>
<line fill="none" stroke="#FFFFFF" stroke-width="8" stroke-linecap="round" stroke-miterlimit="10" x1="724.928" y1="93.683" x2="672.797" y2="105.651"/>
<line fill="none" stroke="#FFFFFF" stroke-width="8" stroke-linecap="round" stroke-miterlimit="10" x1="672.797" y1="105.651" x2="672.797" y2="118.377"/>
<line fill="none" stroke="#FFFFFF" stroke-width="8" stroke-linecap="round" stroke-miterlimit="10" x1="724.928" y1="93.683" x2="817.691" y2="116.367"/>
<line fill="none" stroke="#FFFFFF" stroke-width="8" stroke-linecap="round" stroke-miterlimit="10" x1="817.691" y1="116.367" x2="817.691" y2="143.54"/>
<line fill="none" stroke="#FFFFFF" stroke-width="8" stroke-linecap="round" stroke-miterlimit="10" x1="696.969" y1="158.125" x2="696.969" y2="307.371"/>
<line fill="none" stroke="#FFFFFF" stroke-width="8" stroke-linecap="round" stroke-miterlimit="10" x1="696.969" y1="158.125" x2="728.186" y2="182.203"/>
<line fill="none" stroke="#FFFFFF" stroke-width="8" stroke-linecap="round" stroke-miterlimit="10" x1="594.148" y1="235.772" x2="666.186" y2="235.772"/>
<line fill="none" stroke="#FFFFFF" stroke-width="8" stroke-linecap="round" stroke-miterlimit="10" x1="666.186" y1="235.772" x2="666.186" y2="268.672"/>
<line fill="none" stroke="#FFFFFF" stroke-width="8" stroke-linecap="round" stroke-miterlimit="10" x1="594.148" y1="235.772" x2="594.148" y2="268.039"/>
<line fill="none" stroke="#FFFFFF" stroke-width="8" stroke-linecap="round" stroke-miterlimit="10" x1="564.975" y1="155.684" x2="549.604" y2="155.684"/>
<line fill="none" stroke="#FFFFFF" stroke-width="8" stroke-linecap="round" stroke-miterlimit="10" x1="564.975" y1="155.684" x2="564.975" y2="247.689"/>
<line fill="none" stroke="#FFFFFF" stroke-width="8" stroke-linecap="round" stroke-miterlimit="10" x1="594.148" y1="235.772" x2="549.604" y2="253.968"/>
<line fill="none" stroke="#FFFFFF" stroke-width="8" stroke-linecap="round" stroke-miterlimit="10" x1="564.975" y1="155.684" x2="615.727" y2="188.822"/>
<line fill="none" stroke="#FFFFFF" stroke-width="8" stroke-linecap="round" stroke-miterlimit="10" x1="615.727" y1="188.822" x2="615.727" y2="235.772"/>
<ellipse fill="none" stroke="#FFFFFF" stroke-width="8" stroke-linecap="round" stroke-miterlimit="10" cx="636.648" cy="158.544" rx="16.721" ry="23.615"/>
<path fill="none" stroke="#FFFFFF" stroke-width="8" stroke-linecap="round" stroke-miterlimit="10" d="M584.246,111.68
	c16.227-3.521,42.924,0.586,47.616,22.002"/>
<path fill="none" stroke="#FFFFFF" stroke-width="8" stroke-linecap="round" stroke-miterlimit="10" d="M599.886,144.83
	c-4.107-9.094-11.735-22.002-28.457-18.188"/>
<line fill="none" stroke="#FFFFFF" stroke-width="8" stroke-linecap="round" stroke-miterlimit="10" x1="571.429" y1="126.641" x2="548.547" y2="139.312"/>
<path fill="none" stroke="#FFFFFF" stroke-width="8" stroke-linecap="round" stroke-miterlimit="10" d="M548.547,139.312"/>
<line fill="none" stroke="#FFFFFF" stroke-width="8" stroke-linecap="round" stroke-miterlimit="10" x1="571.429" y1="126.641" x2="571.429" y2="159.898"/>
<line fill="none" stroke="#FFFFFF" stroke-width="8" stroke-linecap="round" stroke-miterlimit="10" x1="584.246" y1="111.68" x2="584.246" y2="126.641"/>
<line fill="none" stroke="#FFFFFF" stroke-width="8" stroke-linecap="round" stroke-miterlimit="10" x1="630.167" y1="134.929" x2="591.344" y2="172.253"/>
<line fill="none" stroke="#FFFFFF" stroke-width="8" stroke-linecap="round" stroke-miterlimit="10" x1="599.886" y1="143.27" x2="599.886" y2="165.21"/>
<line fill="none" stroke="#FFFFFF" stroke-width="8" stroke-linecap="round" stroke-miterlimit="10" x1="649.079" y1="174.337" x2="649.079" y2="235.772"/>
<line fill="none" stroke="#FFFFFF" stroke-width="8" stroke-linecap="round" stroke-miterlimit="10" x1="636.648" y1="183.847" x2="636.648" y2="235.772"/>
<line fill="none" stroke="#FFFFFF" stroke-width="8" stroke-linecap="round" stroke-miterlimit="10" x1="621.594" y1="172.253" x2="608.107" y2="183.847"/>
<g>
	
		<line fill="none" stroke="#FFFFFF" stroke-width="2" stroke-linecap="round" stroke-miterlimit="10" x1="704.657" y1="44.126" x2="693.752" y2="65.279"/>
	
		<line fill="none" stroke="#FFFFFF" stroke-width="2" stroke-linecap="round" stroke-miterlimit="10" x1="693.752" y1="65.279" x2="694.989" y2="96.677"/>
	
		<line fill="none" stroke="#FFFFFF" stroke-width="2" stroke-linecap="round" stroke-miterlimit="10" x1="681.336" y1="69.894" x2="686.912" y2="77.585"/>
	
		<line fill="none" stroke="#FFFFFF" stroke-width="2" stroke-linecap="round" stroke-miterlimit="10" x1="686.912" y1="77.585" x2="686.912" y2="102.11"/>
	
		<line fill="none" stroke="#FFFFFF" stroke-width="2" stroke-linecap="round" stroke-miterlimit="10" x1="681.336" y1="53.356" x2="665.664" y2="79.694"/>
	
		<line fill="none" stroke="#FFFFFF" stroke-width="2" stroke-linecap="round" stroke-miterlimit="10" x1="665.664" y1="79.694" x2="666.027" y2="118.16"/>
	
		<line fill="none" stroke="#FFFFFF" stroke-width="2" stroke-linecap="round" stroke-miterlimit="10" x1="673.5" y1="50.087" x2="677.105" y2="68.74"/>
	
		<line fill="none" stroke="#FFFFFF" stroke-width="2" stroke-linecap="round" stroke-miterlimit="10" x1="669.029" y1="62.202" x2="675.303" y2="71.625"/>
	
		<line fill="none" stroke="#FFFFFF" stroke-width="2" stroke-linecap="round" stroke-miterlimit="10" x1="663.889" y1="67.971" x2="672.166" y2="73.74"/>
	
		<line fill="none" stroke="#FFFFFF" stroke-width="2" stroke-linecap="round" stroke-miterlimit="10" x1="674.367" y1="78.547" x2="654.031" y2="95.853"/>
	
		<line fill="none" stroke="#FFFFFF" stroke-width="2" stroke-linecap="round" stroke-miterlimit="10" x1="672.166" y1="85.662" x2="658.646" y2="98.927"/>
	
		<line fill="none" stroke="#FFFFFF" stroke-width="2" stroke-linecap="round" stroke-miterlimit="10" x1="671.145" y1="92.294" x2="662.107" y2="102.11"/>
	
		<line fill="none" stroke="#FFFFFF" stroke-width="2" stroke-linecap="round" stroke-miterlimit="10" x1="689.989" y1="85.662" x2="681.336" y2="85.662"/>
	
		<line fill="none" stroke="#FFFFFF" stroke-width="2" stroke-linecap="round" stroke-miterlimit="10" x1="689.989" y1="89.848" x2="684.51" y2="89.848"/>
	
		<line fill="none" stroke="#FFFFFF" stroke-width="2" stroke-linecap="round" stroke-miterlimit="10" x1="689.989" y1="92.294" x2="684.51" y2="93.546"/>
	
		<line fill="none" stroke="#FFFFFF" stroke-width="2" stroke-linecap="round" stroke-miterlimit="10" x1="693.752" y1="40.857" x2="706.719" y2="68.74"/>
	
		<line fill="none" stroke="#FFFFFF" stroke-width="2" stroke-linecap="round" stroke-miterlimit="10" x1="688.644" y1="53.632" x2="701.72" y2="65.279"/>
	
		<line fill="none" stroke="#FFFFFF" stroke-width="2" stroke-linecap="round" stroke-miterlimit="10" x1="687.779" y1="71.625" x2="700.33" y2="77.585"/>
</g>
</svg>
